# xmcd
#
# Track frame offsets: 
#        150
#        21897
#        50919
#        76003
#        101028
#        122240
#        139183
#        161536
#        187984
#        214541
#        236540
#        255559
#        277132
#
# Disc length: 3835 seconds
#
# Revision: 0
# Processed by: cddbd v1.5.2PL0 Copyright (c) Steve Scherf et al.
# Submitted via: ExactAudioCopy v1.3
#
DISCID=b50ef90d
DTITLE=Fabrizio Poggi and Chicken Mambo - Spaghetti Juke Joint
DYEAR=2014
DGENRE=Blues
TTITLE0=Bye Bye Bird
TTITLE1=King Bee (featuring Sonny Landreth)
TTITLE2=The Blues Is Alright (featuring Ronnie Earl)
TTITLE3=Devil At The Crossroads
TTITLE4=Mistery Train
TTITLE5=Way Down In The Hole
TTITLE6=Checkin' Up On My Baby
TTITLE7=One Kind Of Favor
TTITLE8=Mojo (featuring Bob Margolin)
TTITLE9=Rock Me Baby
TTITLE10=Nobody (featuring Sara Cappelletti)
TTITLE11=I Want My Baby  (featuring Claudio Bazzari)
TTITLE12=Baby Please Don't Go (Bonus Track)
EXTD=
EXTT0=
EXTT1=
EXTT2=
EXTT3=
EXTT4=
EXTT5=
EXTT6=
EXTT7=
EXTT8=
EXTT9=
EXTT10=
EXTT11=
EXTT12=
PLAYORDER=
